<?xml version="1.0" standalone="no"?>
<!DOCTYPE svg PUBLIC "-//W3C//DTD SVG 20010904//EN"
 "http://www.w3.org/TR/2001/REC-SVG-20010904/DTD/svg10.dtd">
<svg version="1.0" xmlns="http://www.w3.org/2000/svg"
 width="330.000000pt" height="330.000000pt" viewBox="0 0 330.000000 330.000000"
 preserveAspectRatio="xMidYMid meet">

<g transform="translate(0.000000,330.000000) scale(0.100000,-0.100000)"
fill="#000000" stroke="none">
<path d="M1635 2997 c-75 -42 -112 -128 -101 -234 l6 -62 -53 6 c-60 6 -99 -9
-142 -55 -62 -64 -99 -189 -93 -312 l3 -75 -47 -5 c-26 -3 -49 -8 -51 -10 -4
-5 -27 -224 -27 -258 0 -16 9 -22 41 -27 l42 -7 -28 -22 -28 -22 7 -127 c7
-119 6 -127 -14 -154 -20 -28 -20 -34 -10 -120 9 -73 8 -110 -4 -194 -8 -57
-14 -124 -13 -149 2 -39 -7 -60 -55 -146 -35 -59 -62 -121 -68 -152 -5 -28
-21 -75 -36 -103 -23 -46 -25 -59 -19 -118 5 -54 1 -83 -19 -156 -14 -49 -26
-116 -26 -147 0 -68 4 -71 120 -66 l75 3 -2 30 c-2 17 -6 62 -9 101 -8 86 12
157 55 198 16 16 32 40 36 55 4 14 22 61 41 104 22 51 34 94 34 123 0 54 6 66
76 157 30 39 54 80 54 91 0 35 57 187 79 210 11 11 25 34 31 50 l10 28 23 -33
c13 -19 32 -36 42 -38 31 -5 44 -20 81 -93 44 -87 65 -108 109 -108 26 0 39
-6 51 -25 15 -22 15 -28 -1 -76 -21 -63 -16 -163 16 -290 25 -96 23 -148 -11
-287 -13 -50 -20 -95 -16 -99 11 -11 169 -26 291 -27 l110 -1 0 30 c0 27 -6
33 -56 57 -32 15 -72 45 -93 69 -35 42 -36 45 -31 104 3 33 10 85 15 115 11
64 24 289 25 405 0 66 -4 87 -23 119 -13 22 -34 67 -46 101 -37 96 -81 177
-137 250 -38 50 -53 79 -57 110 -5 48 5 59 42 45 24 -9 28 -6 47 31 16 33 22
67 26 169 l6 128 -27 25 c-26 24 -34 61 -16 72 5 3 38 -10 73 -29 34 -19 91
-43 126 -51 l63 -17 40 28 c56 39 75 67 88 130 9 42 17 57 34 64 22 8 22 10
11 67 -15 73 -12 82 34 127 l38 37 279 4 c153 2 285 4 292 4 8 1 12 11 10 29
l-3 27 -100 0 c-173 0 -176 1 -169 30 5 19 2 25 -10 25 -12 0 -16 10 -16 44 0
25 -4 48 -10 51 -6 4 -10 -13 -10 -44 0 -47 -10 -65 -25 -41 -4 6 -109 10
-282 10 l-275 0 -28 30 -28 30 -5 -28 c-5 -23 -14 -30 -64 -44 -32 -9 -59 -15
-61 -14 -1 2 -5 19 -8 38 -6 32 -3 36 25 48 40 16 47 46 33 129 -12 72 -24 88
-96 125 -64 34 -135 35 -191 3z m497 -543 l37 -6 -27 -37 c-14 -20 -28 -38
-29 -40 -6 -8 -73 63 -73 76 0 14 32 17 92 7z"/>
<path d="M273 1970 c-60 -36 -63 -53 -63 -322 0 -353 -15 -338 340 -338 267 0
284 3 320 63 42 69 51 66 -252 69 l-273 3 0 205 0 205 273 3 c303 3 294 0 252
69 -36 60 -53 63 -322 63 -223 0 -246 -2 -275 -20z"/>
<path d="M2406 1971 c-55 -37 -66 -66 -66 -181 0 -119 14 -154 72 -190 31 -19
51 -20 291 -20 l258 0 -3 -67 -3 -68 -307 -3 c-170 -1 -308 -5 -308 -8 0 -23
49 -85 80 -103 36 -20 51 -21 304 -21 295 0 310 3 346 63 17 27 20 51 20 144
0 106 -1 113 -26 143 -50 58 -59 60 -339 60 l-256 0 3 68 3 67 308 3 308 2 -7
23 c-12 38 -42 74 -78 91 -29 13 -75 16 -303 16 -246 0 -270 -2 -297 -19z"/>
</g>
</svg>
